<svg xmlns="http://www.w3.org/2000/svg" xmlns:xlink="http://www.w3.org/1999/xlink" width="400" zoomAndPan="magnify" viewBox="0 0 300 299.999988" height="400" preserveAspectRatio="xMidYMid meet" version="1.0"><defs><g/><clipPath id="ac24e2c8c5"><path d="M 52 275 L 131 275 L 131 294.238281 L 52 294.238281 Z M 52 275 " clip-rule="nonzero"/></clipPath><clipPath id="d12b028132"><rect x="0" width="79" y="0" height="20"/></clipPath><clipPath id="670d4c6cca"><path d="M 0.28125 0 L 185 0 L 185 264 L 0.28125 264 Z M 0.28125 0 " clip-rule="nonzero"/></clipPath><clipPath id="8ec3b17159"><path d="M 86.027344 43.5625 L 95.984375 43.5625 L 95.984375 53.039062 L 86.027344 53.039062 Z M 86.027344 43.5625 " clip-rule="nonzero"/></clipPath><clipPath id="014509aaf2"><path d="M 91.003906 43.5625 C 88.257812 43.5625 86.027344 45.683594 86.027344 48.300781 C 86.027344 50.917969 88.257812 53.039062 91.003906 53.039062 C 93.753906 53.039062 95.980469 50.917969 95.980469 48.300781 C 95.980469 45.683594 93.753906 43.5625 91.003906 43.5625 Z M 91.003906 43.5625 " clip-rule="nonzero"/></clipPath><clipPath id="37c7e98186"><path d="M 0.0273438 0.5625 L 9.984375 0.5625 L 9.984375 10.039062 L 0.0273438 10.039062 Z M 0.0273438 0.5625 " clip-rule="nonzero"/></clipPath><clipPath id="39704823c2"><path d="M 5.003906 0.5625 C 2.257812 0.5625 0.0273438 2.683594 0.0273438 5.300781 C 0.0273438 7.917969 2.257812 10.039062 5.003906 10.039062 C 7.753906 10.039062 9.980469 7.917969 9.980469 5.300781 C 9.980469 2.683594 7.753906 0.5625 5.003906 0.5625 Z M 5.003906 0.5625 " clip-rule="nonzero"/></clipPath><clipPath id="9c89a2f54f"><rect x="0" width="10" y="0" height="11"/></clipPath><clipPath id="4f0898717e"><rect x="0" width="186" y="0" height="295"/></clipPath></defs><g transform="matrix(1, 0, 0, 1, 59, 0)"><g clip-path="url(#4f0898717e)"><g fill="#2b3a52" fill-opacity="1"><g transform="translate(1.450544, 268.69725)"><g><path d="M 0.671875 0 L 0.671875 -0.296875 L 1.28125 -0.546875 C 1.6875 -0.691406 1.953125 -0.882812 2.078125 -1.125 C 2.210938 -1.363281 2.28125 -1.6875 2.28125 -2.09375 L 2.28125 -17.984375 C 2.28125 -18.390625 2.21875 -18.710938 2.09375 -18.953125 C 1.976562 -19.203125 1.707031 -19.398438 1.28125 -19.546875 L 0.671875 -19.78125 L 0.671875 -20.09375 L 8.484375 -20.09375 L 8.484375 -19.78125 L 7.890625 -19.546875 C 7.484375 -19.398438 7.210938 -19.203125 7.078125 -18.953125 C 6.941406 -18.710938 6.875 -18.390625 6.875 -17.984375 L 6.875 -2.09375 C 6.875 -1.6875 6.941406 -1.367188 7.078125 -1.140625 C 7.210938 -0.910156 7.484375 -0.710938 7.890625 -0.546875 L 8.484375 -0.296875 L 8.484375 0 Z M 0.671875 0 "/></g></g></g><g fill="#2b3a52" fill-opacity="1"><g transform="translate(14.561776, 268.69725)"><g><path d="M 1.0625 0 L 1.0625 -0.296875 L 2.0625 -0.609375 C 2.4375 -0.710938 2.703125 -0.910156 2.859375 -1.203125 C 3.023438 -1.492188 3.109375 -1.84375 3.109375 -2.25 L 3.109375 -16.890625 C 2.878906 -17.378906 2.695312 -17.742188 2.5625 -17.984375 C 2.4375 -18.234375 2.289062 -18.441406 2.125 -18.609375 C 1.96875 -18.785156 1.75 -19.003906 1.46875 -19.265625 L 0.9375 -19.78125 L 0.9375 -20.09375 L 6.328125 -20.09375 L 16.4375 -6.296875 L 16.4375 -17.78125 C 16.4375 -18.1875 16.367188 -18.550781 16.234375 -18.875 C 16.109375 -19.195312 15.84375 -19.410156 15.4375 -19.515625 L 14.421875 -19.78125 L 14.421875 -20.09375 L 18.78125 -20.09375 L 18.78125 -19.78125 L 17.953125 -19.515625 C 17.585938 -19.390625 17.363281 -19.175781 17.28125 -18.875 C 17.207031 -18.570312 17.171875 -18.21875 17.171875 -17.8125 L 17.171875 0.09375 L 15.46875 0.09375 L 3.828125 -15.890625 L 3.828125 -2.25 C 3.828125 -1.84375 3.890625 -1.5 4.015625 -1.21875 C 4.140625 -0.9375 4.394531 -0.734375 4.78125 -0.609375 L 5.6875 -0.296875 L 5.6875 0 Z M 1.0625 0 "/></g></g></g><g fill="#2b3a52" fill-opacity="1"><g transform="translate(38.378318, 268.69725)"><g><path d="M 4.75 0 L 4.75 -0.296875 L 6 -0.609375 C 6.832031 -0.785156 7.25 -1.289062 7.25 -2.125 L 7.25 -19.484375 L 4.65625 -19.484375 C 3.90625 -19.484375 3.367188 -19.285156 3.046875 -18.890625 C 2.722656 -18.492188 2.378906 -17.953125 2.015625 -17.265625 L 0.90625 -15.125 L 0.609375 -15.125 L 0.765625 -20.09375 L 18.328125 -20.09375 L 18.4375 -15.125 L 18.140625 -15.125 L 17.046875 -17.265625 C 16.703125 -17.953125 16.363281 -18.492188 16.03125 -18.890625 C 15.707031 -19.285156 15.171875 -19.484375 14.421875 -19.484375 L 11.84375 -19.484375 L 11.84375 -2.125 C 11.84375 -1.289062 12.257812 -0.785156 13.09375 -0.609375 L 14.34375 -0.296875 L 14.34375 0 Z M 4.75 0 "/></g></g></g><g fill="#2b3a52" fill-opacity="1"><g transform="translate(61.404142, 268.69725)"><g><path d="M 0.671875 0 L 0.671875 -0.296875 L 1.375 -0.578125 C 1.71875 -0.722656 1.953125 -0.910156 2.078125 -1.140625 C 2.210938 -1.367188 2.28125 -1.6875 2.28125 -2.09375 L 2.28125 -17.984375 C 2.28125 -18.390625 2.222656 -18.707031 2.109375 -18.9375 C 2.003906 -19.175781 1.757812 -19.367188 1.375 -19.515625 L 0.671875 -19.78125 L 0.671875 -20.09375 L 15.25 -20.09375 L 15.4375 -15.40625 L 15.125 -15.40625 L 13.8125 -18.265625 C 13.632812 -18.628906 13.441406 -18.921875 13.234375 -19.140625 C 13.035156 -19.367188 12.734375 -19.484375 12.328125 -19.484375 L 6.84375 -19.484375 L 6.84375 -10.6875 L 10.109375 -10.6875 C 10.515625 -10.6875 10.820312 -10.789062 11.03125 -11 C 11.25 -11.21875 11.4375 -11.507812 11.59375 -11.875 L 12.203125 -13.09375 L 12.515625 -13.09375 L 12.515625 -7.609375 L 12.203125 -7.609375 L 11.59375 -8.890625 C 11.414062 -9.253906 11.222656 -9.539062 11.015625 -9.75 C 10.816406 -9.96875 10.515625 -10.078125 10.109375 -10.078125 L 6.84375 -10.078125 L 6.84375 -0.609375 L 13 -0.609375 C 13.40625 -0.609375 13.71875 -0.710938 13.9375 -0.921875 C 14.164062 -1.140625 14.347656 -1.441406 14.484375 -1.828125 L 15.734375 -4.6875 L 16.046875 -4.6875 L 15.859375 0 Z M 0.671875 0 "/></g></g></g><g fill="#2b3a52" fill-opacity="1"><g transform="translate(82.240231, 268.69725)"><g><path d="M 0.671875 0 L 0.671875 -0.296875 L 1.3125 -0.515625 C 1.71875 -0.660156 1.976562 -0.847656 2.09375 -1.078125 C 2.21875 -1.316406 2.28125 -1.644531 2.28125 -2.0625 L 2.28125 -17.984375 C 2.28125 -18.390625 2.222656 -18.707031 2.109375 -18.9375 C 2.003906 -19.175781 1.757812 -19.367188 1.375 -19.515625 L 0.671875 -19.78125 L 0.671875 -20.09375 L 9.375 -20.09375 C 11.769531 -20.09375 13.601562 -19.640625 14.875 -18.734375 C 16.15625 -17.828125 16.796875 -16.570312 16.796875 -14.96875 C 16.796875 -14.082031 16.460938 -13.191406 15.796875 -12.296875 C 15.128906 -11.398438 14.070312 -10.710938 12.625 -10.234375 L 16.859375 -1.828125 C 17.046875 -1.484375 17.253906 -1.203125 17.484375 -0.984375 C 17.722656 -0.773438 18.035156 -0.585938 18.421875 -0.421875 L 18.8125 -0.28125 L 18.8125 0 L 13.359375 0 L 8.859375 -9.59375 L 6.78125 -9.59375 L 6.78125 -2.0625 C 6.78125 -1.675781 6.84375 -1.363281 6.96875 -1.125 C 7.09375 -0.882812 7.347656 -0.703125 7.734375 -0.578125 L 8.46875 -0.296875 L 8.46875 0 Z M 6.78125 -10.203125 L 8.25 -10.203125 C 9.707031 -10.203125 10.757812 -10.59375 11.40625 -11.375 C 12.0625 -12.15625 12.390625 -13.316406 12.390625 -14.859375 C 12.390625 -16.421875 12.082031 -17.582031 11.46875 -18.34375 C 10.863281 -19.101562 9.84375 -19.484375 8.40625 -19.484375 L 6.78125 -19.484375 Z M 6.78125 -10.203125 "/></g></g></g><g fill="#2b3a52" fill-opacity="1"><g transform="translate(105.296454, 268.69725)"><g><path d="M 0.671875 0 L 0.671875 -0.296875 L 1.28125 -0.546875 C 1.6875 -0.691406 1.953125 -0.882812 2.078125 -1.125 C 2.210938 -1.363281 2.28125 -1.6875 2.28125 -2.09375 L 2.28125 -17.984375 C 2.28125 -18.390625 2.21875 -18.710938 2.09375 -18.953125 C 1.976562 -19.203125 1.707031 -19.398438 1.28125 -19.546875 L 0.671875 -19.78125 L 0.671875 -20.09375 L 8.484375 -20.09375 L 8.484375 -19.78125 L 7.890625 -19.546875 C 7.484375 -19.398438 7.210938 -19.203125 7.078125 -18.953125 C 6.941406 -18.710938 6.875 -18.390625 6.875 -17.984375 L 6.875 -2.09375 C 6.875 -1.6875 6.941406 -1.367188 7.078125 -1.140625 C 7.210938 -0.910156 7.484375 -0.710938 7.890625 -0.546875 L 8.484375 -0.296875 L 8.484375 0 Z M 0.671875 0 "/></g></g></g><g fill="#2b3a52" fill-opacity="1"><g transform="translate(117.890342, 268.69725)"><g><path d="M 10.203125 0.546875 C 8.960938 0.546875 7.769531 0.320312 6.625 -0.125 C 5.476562 -0.570312 4.453125 -1.234375 3.546875 -2.109375 C 2.640625 -2.992188 1.921875 -4.09375 1.390625 -5.40625 C 0.867188 -6.726562 0.609375 -8.273438 0.609375 -10.046875 C 0.609375 -11.785156 0.867188 -13.316406 1.390625 -14.640625 C 1.921875 -15.960938 2.644531 -17.0625 3.5625 -17.9375 C 4.476562 -18.820312 5.507812 -19.492188 6.65625 -19.953125 C 7.800781 -20.410156 8.984375 -20.640625 10.203125 -20.640625 C 11.429688 -20.640625 12.617188 -20.421875 13.765625 -19.984375 C 14.921875 -19.546875 15.945312 -18.882812 16.84375 -18 C 17.75 -17.125 18.460938 -16.019531 18.984375 -14.6875 C 19.515625 -13.351562 19.78125 -11.804688 19.78125 -10.046875 C 19.78125 -8.316406 19.515625 -6.785156 18.984375 -5.453125 C 18.460938 -4.128906 17.75 -3.023438 16.84375 -2.140625 C 15.945312 -1.265625 14.921875 -0.597656 13.765625 -0.140625 C 12.617188 0.316406 11.429688 0.546875 10.203125 0.546875 Z M 10.203125 -0.09375 C 11.316406 -0.09375 12.21875 -0.390625 12.90625 -0.984375 C 13.59375 -1.585938 14.09375 -2.613281 14.40625 -4.0625 C 14.726562 -5.507812 14.890625 -7.503906 14.890625 -10.046875 C 14.890625 -12.597656 14.726562 -14.597656 14.40625 -16.046875 C 14.09375 -17.503906 13.59375 -18.53125 12.90625 -19.125 C 12.21875 -19.726562 11.316406 -20.03125 10.203125 -20.03125 C 9.097656 -20.03125 8.203125 -19.726562 7.515625 -19.125 C 6.828125 -18.53125 6.328125 -17.503906 6.015625 -16.046875 C 5.703125 -14.597656 5.546875 -12.597656 5.546875 -10.046875 C 5.546875 -7.503906 5.703125 -5.507812 6.015625 -4.0625 C 6.328125 -2.613281 6.828125 -1.585938 7.515625 -0.984375 C 8.203125 -0.390625 9.097656 -0.09375 10.203125 -0.09375 Z M 10.203125 -0.09375 "/></g></g></g><g fill="#2b3a52" fill-opacity="1"><g transform="translate(141.706568, 268.69725)"><g><path d="M 0.671875 0 L 0.671875 -0.296875 L 1.3125 -0.515625 C 1.71875 -0.660156 1.976562 -0.847656 2.09375 -1.078125 C 2.21875 -1.316406 2.28125 -1.644531 2.28125 -2.0625 L 2.28125 -17.984375 C 2.28125 -18.390625 2.222656 -18.707031 2.109375 -18.9375 C 2.003906 -19.175781 1.757812 -19.367188 1.375 -19.515625 L 0.671875 -19.78125 L 0.671875 -20.09375 L 9.375 -20.09375 C 11.769531 -20.09375 13.601562 -19.640625 14.875 -18.734375 C 16.15625 -17.828125 16.796875 -16.570312 16.796875 -14.96875 C 16.796875 -14.082031 16.460938 -13.191406 15.796875 -12.296875 C 15.128906 -11.398438 14.070312 -10.710938 12.625 -10.234375 L 16.859375 -1.828125 C 17.046875 -1.484375 17.253906 -1.203125 17.484375 -0.984375 C 17.722656 -0.773438 18.035156 -0.585938 18.421875 -0.421875 L 18.8125 -0.28125 L 18.8125 0 L 13.359375 0 L 8.859375 -9.59375 L 6.78125 -9.59375 L 6.78125 -2.0625 C 6.78125 -1.675781 6.84375 -1.363281 6.96875 -1.125 C 7.09375 -0.882812 7.347656 -0.703125 7.734375 -0.578125 L 8.46875 -0.296875 L 8.46875 0 Z M 6.78125 -10.203125 L 8.25 -10.203125 C 9.707031 -10.203125 10.757812 -10.59375 11.40625 -11.375 C 12.0625 -12.15625 12.390625 -13.316406 12.390625 -14.859375 C 12.390625 -16.421875 12.082031 -17.582031 11.46875 -18.34375 C 10.863281 -19.101562 9.84375 -19.484375 8.40625 -19.484375 L 6.78125 -19.484375 Z M 6.78125 -10.203125 "/></g></g></g><g fill="#2b3a52" fill-opacity="1"><g transform="translate(164.6715, 268.69725)"><g><path d="M 7.21875 0.546875 C 6.101562 0.546875 4.960938 0.40625 3.796875 0.125 C 2.640625 -0.144531 1.675781 -0.5 0.90625 -0.9375 L 1.0625 -5.078125 L 1.375 -5.078125 L 2.3125 -3.109375 C 2.59375 -2.535156 2.894531 -2.03125 3.21875 -1.59375 C 3.550781 -1.15625 4 -0.816406 4.5625 -0.578125 C 4.96875 -0.378906 5.359375 -0.242188 5.734375 -0.171875 C 6.109375 -0.0976562 6.53125 -0.0625 7 -0.0625 C 8.238281 -0.0625 9.21875 -0.394531 9.9375 -1.0625 C 10.65625 -1.726562 11.015625 -2.59375 11.015625 -3.65625 C 11.015625 -4.644531 10.769531 -5.414062 10.28125 -5.96875 C 9.800781 -6.53125 9.019531 -7.078125 7.9375 -7.609375 L 6.703125 -8.15625 C 4.953125 -8.925781 3.582031 -9.8125 2.59375 -10.8125 C 1.613281 -11.820312 1.125 -13.160156 1.125 -14.828125 C 1.125 -16.023438 1.429688 -17.054688 2.046875 -17.921875 C 2.671875 -18.796875 3.535156 -19.46875 4.640625 -19.9375 C 5.742188 -20.40625 7.035156 -20.640625 8.515625 -20.640625 C 9.597656 -20.640625 10.617188 -20.492188 11.578125 -20.203125 C 12.546875 -19.921875 13.382812 -19.535156 14.09375 -19.046875 L 13.90625 -15.40625 L 13.609375 -15.40625 L 12.359375 -17.6875 C 12.015625 -18.394531 11.671875 -18.894531 11.328125 -19.1875 C 10.984375 -19.476562 10.585938 -19.6875 10.140625 -19.8125 C 9.867188 -19.894531 9.625 -19.953125 9.40625 -19.984375 C 9.1875 -20.015625 8.898438 -20.03125 8.546875 -20.03125 C 7.515625 -20.03125 6.644531 -19.726562 5.9375 -19.125 C 5.226562 -18.53125 4.875 -17.722656 4.875 -16.703125 C 4.875 -15.671875 5.144531 -14.84375 5.6875 -14.21875 C 6.238281 -13.601562 7.039062 -13.054688 8.09375 -12.578125 L 9.5 -11.96875 C 11.445312 -11.113281 12.84375 -10.203125 13.6875 -9.234375 C 14.539062 -8.273438 14.96875 -7.035156 14.96875 -5.515625 C 14.96875 -3.722656 14.289062 -2.265625 12.9375 -1.140625 C 11.59375 -0.015625 9.6875 0.546875 7.21875 0.546875 Z M 7.21875 0.546875 "/></g></g></g><g clip-path="url(#ac24e2c8c5)"><g transform="matrix(1, 0, 0, 1, 52, 275)"><g clip-path="url(#d12b028132)"><g fill="#4c483d" fill-opacity="1"><g transform="translate(0.96231, 13.908494)"><g><path d="M 8.546875 -6.25 C 9.015625 -6.25 9.25 -5.765625 9.25 -4.796875 C 9.25 -4.460938 9.226562 -4.148438 9.1875 -3.859375 C 9.082031 -3.085938 8.859375 -2.390625 8.515625 -1.765625 C 8.179688 -1.140625 7.800781 -0.65625 7.375 -0.3125 C 6.945312 0.03125 6.546875 0.203125 6.171875 0.203125 C 5.890625 0.203125 5.632812 0.109375 5.40625 -0.078125 C 5.1875 -0.273438 5.007812 -0.550781 4.875 -0.90625 C 4.5625 -0.539062 4.234375 -0.265625 3.890625 -0.078125 C 3.554688 0.109375 3.234375 0.203125 2.921875 0.203125 C 2.460938 0.203125 2.113281 0.0351562 1.875 -0.296875 C 1.632812 -0.640625 1.515625 -1.066406 1.515625 -1.578125 C 1.515625 -1.960938 1.597656 -2.378906 1.765625 -2.828125 C 1.929688 -3.285156 2.164062 -3.828125 2.46875 -4.453125 C 2.507812 -4.546875 2.546875 -4.628906 2.578125 -4.703125 C 2.617188 -4.773438 2.648438 -4.835938 2.671875 -4.890625 C 2.710938 -4.972656 2.734375 -5.050781 2.734375 -5.125 C 2.734375 -5.226562 2.660156 -5.28125 2.515625 -5.28125 L 1.703125 -5.28125 C 1.421875 -5.28125 1.210938 -5.257812 1.078125 -5.21875 C 0.953125 -5.1875 0.847656 -5.113281 0.765625 -5 C 0.679688 -4.894531 0.597656 -4.71875 0.515625 -4.46875 C 0.503906 -4.4375 0.472656 -4.421875 0.421875 -4.421875 C 0.390625 -4.421875 0.363281 -4.429688 0.34375 -4.453125 C 0.332031 -4.472656 0.332031 -4.5 0.34375 -4.53125 C 0.507812 -5.007812 0.648438 -5.351562 0.765625 -5.5625 C 0.878906 -5.78125 1.015625 -5.925781 1.171875 -6 C 1.335938 -6.070312 1.582031 -6.109375 1.90625 -6.109375 L 3.3125 -6.109375 C 3.425781 -6.109375 3.484375 -6.085938 3.484375 -6.046875 C 3.484375 -6.023438 3.46875 -5.984375 3.4375 -5.921875 C 3.175781 -5.328125 2.945312 -4.71875 2.75 -4.09375 C 2.5625 -3.476562 2.429688 -2.941406 2.359375 -2.484375 C 2.335938 -2.242188 2.328125 -2.078125 2.328125 -1.984375 C 2.328125 -1.535156 2.421875 -1.175781 2.609375 -0.90625 C 2.796875 -0.644531 3.050781 -0.515625 3.375 -0.515625 C 3.59375 -0.515625 3.820312 -0.582031 4.0625 -0.71875 C 4.300781 -0.851562 4.53125 -1.039062 4.75 -1.28125 C 4.644531 -1.65625 4.59375 -2.097656 4.59375 -2.609375 C 4.59375 -2.984375 4.625 -3.359375 4.6875 -3.734375 C 4.789062 -4.441406 4.953125 -5.023438 5.171875 -5.484375 C 5.398438 -5.953125 5.648438 -6.1875 5.921875 -6.1875 C 6.109375 -6.1875 6.25 -6.09375 6.34375 -5.90625 C 6.4375 -5.71875 6.484375 -5.460938 6.484375 -5.140625 C 6.484375 -5.015625 6.460938 -4.796875 6.421875 -4.484375 C 6.234375 -3.304688 5.859375 -2.300781 5.296875 -1.46875 C 5.609375 -0.832031 6.046875 -0.515625 6.609375 -0.515625 C 6.867188 -0.515625 7.140625 -0.625 7.421875 -0.84375 C 7.703125 -1.0625 7.953125 -1.363281 8.171875 -1.75 C 8.398438 -2.132812 8.554688 -2.578125 8.640625 -3.078125 C 8.691406 -3.328125 8.71875 -3.570312 8.71875 -3.8125 C 8.71875 -4.15625 8.671875 -4.421875 8.578125 -4.609375 C 8.492188 -4.796875 8.375 -4.988281 8.21875 -5.1875 C 8.125 -5.28125 8.050781 -5.363281 8 -5.4375 C 7.957031 -5.519531 7.9375 -5.613281 7.9375 -5.71875 C 7.9375 -5.894531 8 -6.023438 8.125 -6.109375 C 8.25 -6.203125 8.390625 -6.25 8.546875 -6.25 Z M 5 -4.125 C 4.957031 -3.851562 4.9375 -3.566406 4.9375 -3.265625 C 4.9375 -2.722656 5.007812 -2.238281 5.15625 -1.8125 C 5.570312 -2.46875 5.84375 -3.207031 5.96875 -4.03125 C 5.988281 -4.238281 6 -4.375 6 -4.4375 C 6 -4.675781 5.960938 -4.863281 5.890625 -5 C 5.828125 -5.132812 5.726562 -5.203125 5.59375 -5.203125 C 5.4375 -5.203125 5.304688 -5.097656 5.203125 -4.890625 C 5.109375 -4.679688 5.039062 -4.425781 5 -4.125 Z M 5 -4.125 "/></g></g></g><g fill="#4c483d" fill-opacity="1"><g transform="translate(11.035402, 13.908494)"><g><path d="M 2.71875 -8.09375 C 2.507812 -8.09375 2.34375 -8.148438 2.21875 -8.265625 C 2.09375 -8.390625 2.03125 -8.5625 2.03125 -8.78125 C 2.03125 -8.976562 2.09375 -9.132812 2.21875 -9.25 C 2.34375 -9.363281 2.507812 -9.421875 2.71875 -9.421875 C 2.925781 -9.421875 3.085938 -9.363281 3.203125 -9.25 C 3.316406 -9.132812 3.375 -8.976562 3.375 -8.78125 C 3.375 -8.5625 3.316406 -8.390625 3.203125 -8.265625 C 3.085938 -8.148438 2.925781 -8.09375 2.71875 -8.09375 Z M 1.71875 0.140625 C 1.53125 0.140625 1.390625 0.0859375 1.296875 -0.015625 C 1.203125 -0.128906 1.15625 -0.3125 1.15625 -0.5625 C 1.15625 -0.726562 1.191406 -1.007812 1.265625 -1.40625 L 1.90625 -4.6875 C 1.9375 -4.84375 1.953125 -4.984375 1.953125 -5.109375 C 1.953125 -5.453125 1.847656 -5.625 1.640625 -5.625 C 1.515625 -5.625 1.351562 -5.554688 1.15625 -5.421875 C 0.96875 -5.296875 0.765625 -5.117188 0.546875 -4.890625 C 0.535156 -4.878906 0.519531 -4.875 0.5 -4.875 C 0.46875 -4.875 0.4375 -4.890625 0.40625 -4.921875 C 0.382812 -4.960938 0.390625 -4.992188 0.421875 -5.015625 C 0.796875 -5.441406 1.128906 -5.75 1.421875 -5.9375 C 1.710938 -6.132812 1.988281 -6.234375 2.25 -6.234375 C 2.445312 -6.234375 2.585938 -6.175781 2.671875 -6.0625 C 2.765625 -5.957031 2.8125 -5.773438 2.8125 -5.515625 C 2.8125 -5.316406 2.78125 -5.050781 2.71875 -4.71875 L 2.0625 -1.40625 C 2.03125 -1.238281 2.015625 -1.097656 2.015625 -0.984375 C 2.015625 -0.648438 2.113281 -0.484375 2.3125 -0.484375 C 2.570312 -0.484375 2.929688 -0.71875 3.390625 -1.1875 C 3.410156 -1.207031 3.429688 -1.21875 3.453125 -1.21875 C 3.484375 -1.21875 3.507812 -1.195312 3.53125 -1.15625 C 3.550781 -1.125 3.546875 -1.09375 3.515625 -1.0625 C 3.160156 -0.644531 2.835938 -0.335938 2.546875 -0.140625 C 2.265625 0.046875 1.988281 0.140625 1.71875 0.140625 Z M 1.71875 0.140625 "/></g></g></g><g fill="#4c483d" fill-opacity="1"><g transform="translate(15.250936, 13.908494)"><g><path d="M 4.578125 -6.046875 C 4.648438 -6.046875 4.6875 -6.007812 4.6875 -5.9375 C 4.6875 -5.851562 4.628906 -5.738281 4.515625 -5.59375 C 4.398438 -5.457031 4.289062 -5.390625 4.1875 -5.390625 C 4.132812 -5.390625 3.925781 -5.414062 3.5625 -5.46875 C 3.195312 -5.519531 2.84375 -5.550781 2.5 -5.5625 L 1.796875 -1.640625 C 1.765625 -1.472656 1.75 -1.320312 1.75 -1.1875 C 1.75 -0.914062 1.8125 -0.71875 1.9375 -0.59375 C 2.0625 -0.46875 2.257812 -0.40625 2.53125 -0.40625 C 2.800781 -0.40625 3.054688 -0.460938 3.296875 -0.578125 C 3.535156 -0.703125 3.785156 -0.878906 4.046875 -1.109375 L 4.0625 -1.109375 C 4.09375 -1.109375 4.125 -1.09375 4.15625 -1.0625 C 4.195312 -1.03125 4.203125 -1.003906 4.171875 -0.984375 C 3.691406 -0.566406 3.273438 -0.265625 2.921875 -0.078125 C 2.578125 0.0976562 2.238281 0.1875 1.90625 0.1875 C 1.601562 0.1875 1.351562 0.109375 1.15625 -0.046875 C 0.957031 -0.203125 0.859375 -0.457031 0.859375 -0.8125 C 0.859375 -0.875 0.867188 -0.988281 0.890625 -1.15625 L 1.5625 -4.828125 C 1.601562 -5.023438 1.625 -5.191406 1.625 -5.328125 C 1.625 -5.484375 1.582031 -5.582031 1.5 -5.625 C 1.414062 -5.675781 1.257812 -5.703125 1.03125 -5.703125 C 1 -5.703125 0.984375 -5.726562 0.984375 -5.78125 C 0.984375 -5.800781 0.988281 -5.820312 1 -5.84375 C 1.019531 -5.875 1.035156 -5.890625 1.046875 -5.890625 C 1.398438 -5.890625 1.707031 -6.003906 1.96875 -6.234375 C 2.226562 -6.460938 2.410156 -6.75 2.515625 -7.09375 C 2.535156 -7.132812 2.582031 -7.15625 2.65625 -7.15625 C 2.757812 -7.15625 2.800781 -7.132812 2.78125 -7.09375 L 2.578125 -5.9375 C 3.085938 -5.957031 3.578125 -5.984375 4.046875 -6.015625 Z M 4.578125 -6.046875 "/></g></g></g><g fill="#4c483d" fill-opacity="1"><g transform="translate(20.224323, 13.908494)"><g><path d="M 6.640625 -1.21875 C 6.660156 -1.238281 6.679688 -1.25 6.703125 -1.25 C 6.734375 -1.25 6.757812 -1.226562 6.78125 -1.1875 C 6.800781 -1.15625 6.796875 -1.125 6.765625 -1.09375 C 6.410156 -0.664062 6.09375 -0.351562 5.8125 -0.15625 C 5.53125 0.0390625 5.257812 0.140625 5 0.140625 C 4.8125 0.140625 4.671875 0.0859375 4.578125 -0.015625 C 4.492188 -0.128906 4.453125 -0.3125 4.453125 -0.5625 C 4.453125 -0.78125 4.484375 -1.0625 4.546875 -1.40625 L 5 -3.90625 C 5.0625 -4.25 5.09375 -4.535156 5.09375 -4.765625 C 5.09375 -5.378906 4.867188 -5.6875 4.421875 -5.6875 C 4.078125 -5.6875 3.722656 -5.46875 3.359375 -5.03125 C 2.992188 -4.601562 2.644531 -3.976562 2.3125 -3.15625 C 1.988281 -2.34375 1.726562 -1.378906 1.53125 -0.265625 L 1.5 -0.109375 C 1.476562 -0.0351562 1.421875 0.0195312 1.328125 0.0625 C 1.242188 0.101562 1.128906 0.125 0.984375 0.125 C 0.734375 0.125 0.609375 0.09375 0.609375 0.03125 L 0.671875 -0.328125 C 0.734375 -0.578125 0.796875 -0.859375 0.859375 -1.171875 L 2.46875 -9.765625 C 2.488281 -9.929688 2.5 -10.039062 2.5 -10.09375 C 2.5 -10.375 2.378906 -10.515625 2.140625 -10.515625 C 1.972656 -10.515625 1.722656 -10.4375 1.390625 -10.28125 L 1.359375 -10.28125 C 1.316406 -10.28125 1.289062 -10.300781 1.28125 -10.34375 C 1.269531 -10.394531 1.28125 -10.429688 1.3125 -10.453125 L 3.34375 -11.4375 L 3.375 -11.4375 C 3.414062 -11.4375 3.453125 -11.421875 3.484375 -11.390625 C 3.523438 -11.359375 3.539062 -11.332031 3.53125 -11.3125 L 2 -2.90625 C 2.382812 -3.96875 2.832031 -4.796875 3.34375 -5.390625 C 3.851562 -5.992188 4.382812 -6.296875 4.9375 -6.296875 C 5.28125 -6.296875 5.535156 -6.195312 5.703125 -6 C 5.878906 -5.8125 5.96875 -5.507812 5.96875 -5.09375 C 5.96875 -4.851562 5.9375 -4.5625 5.875 -4.21875 L 5.34375 -1.40625 C 5.3125 -1.25 5.296875 -1.109375 5.296875 -0.984375 C 5.296875 -0.648438 5.398438 -0.484375 5.609375 -0.484375 C 5.835938 -0.484375 6.179688 -0.726562 6.640625 -1.21875 Z M 6.640625 -1.21875 "/></g></g></g><g fill="#4c483d" fill-opacity="1"><g transform="translate(27.566004, 13.908494)"><g/></g></g><g fill="#4c483d" fill-opacity="1"><g transform="translate(31.576281, 13.908494)"><g><path d="M 0.203125 0 C 0.171875 0 0.15625 -0.03125 0.15625 -0.09375 C 0.15625 -0.15625 0.171875 -0.1875 0.203125 -0.1875 C 0.535156 -0.1875 0.785156 -0.210938 0.953125 -0.265625 C 1.128906 -0.316406 1.257812 -0.421875 1.34375 -0.578125 C 1.425781 -0.734375 1.5 -0.96875 1.5625 -1.28125 L 2.84375 -8.578125 C 2.882812 -8.765625 2.90625 -8.941406 2.90625 -9.109375 C 2.90625 -9.328125 2.832031 -9.472656 2.6875 -9.546875 C 2.550781 -9.628906 2.285156 -9.671875 1.890625 -9.671875 C 1.867188 -9.671875 1.859375 -9.703125 1.859375 -9.765625 C 1.859375 -9.828125 1.867188 -9.859375 1.890625 -9.859375 L 2.53125 -9.84375 C 2.90625 -9.820312 3.210938 -9.8125 3.453125 -9.8125 C 3.566406 -9.8125 3.816406 -9.820312 4.203125 -9.84375 C 4.679688 -9.882812 5.078125 -9.90625 5.390625 -9.90625 C 6.171875 -9.90625 6.8125 -9.722656 7.3125 -9.359375 C 7.8125 -8.992188 8.0625 -8.457031 8.0625 -7.75 C 8.0625 -7.550781 8.039062 -7.351562 8 -7.15625 C 7.882812 -6.488281 7.613281 -5.925781 7.1875 -5.46875 C 6.757812 -5.019531 6.269531 -4.6875 5.71875 -4.46875 C 5.164062 -4.25 4.632812 -4.140625 4.125 -4.140625 C 3.851562 -4.140625 3.632812 -4.164062 3.46875 -4.21875 C 3.445312 -4.21875 3.4375 -4.238281 3.4375 -4.28125 C 3.4375 -4.3125 3.445312 -4.347656 3.46875 -4.390625 C 3.488281 -4.429688 3.507812 -4.445312 3.53125 -4.4375 C 3.664062 -4.394531 3.828125 -4.375 4.015625 -4.375 C 4.429688 -4.375 4.84375 -4.460938 5.25 -4.640625 C 5.65625 -4.816406 6.003906 -5.09375 6.296875 -5.46875 C 6.597656 -5.84375 6.800781 -6.296875 6.90625 -6.828125 C 6.945312 -7.046875 6.96875 -7.273438 6.96875 -7.515625 C 6.96875 -8.179688 6.785156 -8.707031 6.421875 -9.09375 C 6.054688 -9.476562 5.601562 -9.671875 5.0625 -9.671875 C 4.71875 -9.671875 4.46875 -9.648438 4.3125 -9.609375 C 4.164062 -9.566406 4.046875 -9.46875 3.953125 -9.3125 C 3.867188 -9.164062 3.789062 -8.910156 3.71875 -8.546875 L 2.453125 -1.28125 C 2.421875 -1.082031 2.40625 -0.910156 2.40625 -0.765625 C 2.40625 -0.535156 2.472656 -0.378906 2.609375 -0.296875 C 2.753906 -0.222656 3.019531 -0.1875 3.40625 -0.1875 C 3.4375 -0.1875 3.453125 -0.15625 3.453125 -0.09375 C 3.453125 -0.03125 3.4375 0 3.40625 0 C 3.132812 0 2.921875 -0.00390625 2.765625 -0.015625 L 1.765625 -0.03125 L 0.84375 -0.015625 C 0.675781 -0.00390625 0.460938 0 0.203125 0 Z M 0.203125 0 "/></g></g></g><g fill="#4c483d" fill-opacity="1"><g transform="translate(39.833692, 13.908494)"><g><path d="M 6.875 -1.203125 C 6.882812 -1.210938 6.898438 -1.21875 6.921875 -1.21875 C 6.953125 -1.21875 6.976562 -1.195312 7 -1.15625 C 7.019531 -1.125 7.019531 -1.097656 7 -1.078125 C 6.632812 -0.648438 6.304688 -0.335938 6.015625 -0.140625 C 5.722656 0.046875 5.4375 0.140625 5.15625 0.140625 C 4.976562 0.140625 4.847656 0.0859375 4.765625 -0.015625 C 4.679688 -0.128906 4.640625 -0.304688 4.640625 -0.546875 C 4.640625 -0.828125 4.664062 -1.101562 4.71875 -1.375 L 5.046875 -3.28125 C 4.671875 -2.1875 4.222656 -1.332031 3.703125 -0.71875 C 3.191406 -0.101562 2.648438 0.203125 2.078125 0.203125 C 1.390625 0.203125 1.046875 -0.1875 1.046875 -0.96875 C 1.046875 -1.25 1.082031 -1.550781 1.15625 -1.875 L 1.71875 -4.6875 C 1.75 -4.863281 1.765625 -5.003906 1.765625 -5.109375 C 1.765625 -5.441406 1.664062 -5.609375 1.46875 -5.609375 C 1.257812 -5.609375 0.910156 -5.363281 0.421875 -4.875 C 0.398438 -4.851562 0.378906 -4.84375 0.359375 -4.84375 C 0.328125 -4.84375 0.300781 -4.859375 0.28125 -4.890625 C 0.257812 -4.929688 0.265625 -4.96875 0.296875 -5 C 0.671875 -5.425781 0.992188 -5.738281 1.265625 -5.9375 C 1.546875 -6.132812 1.816406 -6.234375 2.078125 -6.234375 C 2.453125 -6.234375 2.640625 -5.988281 2.640625 -5.5 C 2.640625 -5.34375 2.601562 -5.070312 2.53125 -4.6875 L 2.015625 -2.171875 C 1.941406 -1.773438 1.90625 -1.488281 1.90625 -1.3125 C 1.90625 -0.707031 2.132812 -0.40625 2.59375 -0.40625 C 2.9375 -0.40625 3.296875 -0.625 3.671875 -1.0625 C 4.046875 -1.507812 4.394531 -2.15625 4.71875 -3 C 5.050781 -3.84375 5.316406 -4.835938 5.515625 -5.984375 C 5.554688 -6.140625 5.726562 -6.21875 6.03125 -6.21875 C 6.28125 -6.21875 6.40625 -6.1875 6.40625 -6.125 L 6.34375 -5.765625 C 6.28125 -5.503906 6.222656 -5.222656 6.171875 -4.921875 L 5.515625 -1.40625 C 5.484375 -1.25 5.46875 -1.109375 5.46875 -0.984375 C 5.46875 -0.640625 5.578125 -0.46875 5.796875 -0.46875 C 5.910156 -0.46875 6.0625 -0.53125 6.25 -0.65625 C 6.445312 -0.789062 6.65625 -0.972656 6.875 -1.203125 Z M 6.875 -1.203125 "/></g></g></g><g fill="#4c483d" fill-opacity="1"><g transform="translate(47.49113, 13.908494)"><g><path d="M 4.5625 -6.234375 C 4.757812 -6.234375 4.953125 -6.160156 5.140625 -6.015625 C 5.328125 -5.867188 5.421875 -5.691406 5.421875 -5.484375 C 5.421875 -5.328125 5.367188 -5.195312 5.265625 -5.09375 C 5.171875 -4.988281 5.050781 -4.9375 4.90625 -4.9375 C 4.789062 -4.9375 4.695312 -4.960938 4.625 -5.015625 C 4.5625 -5.066406 4.492188 -5.144531 4.421875 -5.25 C 4.378906 -5.300781 4.332031 -5.347656 4.28125 -5.390625 C 4.226562 -5.441406 4.171875 -5.46875 4.109375 -5.46875 C 3.867188 -5.46875 3.585938 -5.160156 3.265625 -4.546875 C 2.953125 -3.941406 2.648438 -3.210938 2.359375 -2.359375 C 2.078125 -1.515625 1.875 -0.765625 1.75 -0.109375 C 1.738281 -0.0351562 1.6875 0.0195312 1.59375 0.0625 C 1.507812 0.101562 1.394531 0.125 1.25 0.125 C 1.113281 0.125 1.019531 0.113281 0.96875 0.09375 C 0.925781 0.0820312 0.90625 0.0625 0.90625 0.03125 L 0.984375 -0.328125 L 1.140625 -1.171875 L 1.65625 -4.09375 C 1.71875 -4.4375 1.75 -4.707031 1.75 -4.90625 C 1.75 -5.382812 1.625 -5.625 1.375 -5.625 C 1.144531 -5.625 0.820312 -5.425781 0.40625 -5.03125 L 0.375 -5.015625 C 0.34375 -5.015625 0.316406 -5.03125 0.296875 -5.0625 C 0.273438 -5.101562 0.269531 -5.132812 0.28125 -5.15625 C 0.601562 -5.519531 0.898438 -5.789062 1.171875 -5.96875 C 1.453125 -6.144531 1.722656 -6.234375 1.984375 -6.234375 C 2.191406 -6.234375 2.347656 -6.164062 2.453125 -6.03125 C 2.554688 -5.894531 2.609375 -5.65625 2.609375 -5.3125 C 2.609375 -5.050781 2.566406 -4.65625 2.484375 -4.125 L 2.140625 -2.3125 C 2.503906 -3.425781 2.898438 -4.359375 3.328125 -5.109375 C 3.753906 -5.859375 4.164062 -6.234375 4.5625 -6.234375 Z M 4.5625 -6.234375 "/></g></g></g><g fill="#4c483d" fill-opacity="1"><g transform="translate(53.175009, 13.908494)"><g><path d="M 4.5 -6.203125 C 5 -6.203125 5.378906 -6.0625 5.640625 -5.78125 C 5.910156 -5.5 6.046875 -5.09375 6.046875 -4.5625 C 6.046875 -4.394531 6.03125 -4.207031 6 -4 C 5.90625 -3.289062 5.664062 -2.628906 5.28125 -2.015625 C 4.90625 -1.398438 4.445312 -0.90625 3.90625 -0.53125 C 3.375 -0.164062 2.832031 0.015625 2.28125 0.015625 C 1.90625 0.015625 1.609375 0 1.390625 -0.03125 L 0.890625 2.8125 C 0.859375 2.988281 0.84375 3.132812 0.84375 3.25 C 0.84375 3.4375 0.882812 3.570312 0.96875 3.65625 C 1.0625 3.738281 1.207031 3.78125 1.40625 3.78125 C 1.46875 3.78125 1.59375 3.769531 1.78125 3.75 L 1.796875 3.75 C 1.828125 3.75 1.847656 3.773438 1.859375 3.828125 C 1.867188 3.878906 1.851562 3.910156 1.8125 3.921875 L -0.90625 4.34375 C -0.945312 4.351562 -0.972656 4.328125 -0.984375 4.265625 C -0.992188 4.203125 -0.976562 4.164062 -0.9375 4.15625 C -0.695312 4.113281 -0.519531 4.054688 -0.40625 3.984375 C -0.289062 3.910156 -0.203125 3.796875 -0.140625 3.640625 C -0.0859375 3.492188 -0.03125 3.253906 0.03125 2.921875 L 1.375 -4.578125 L 0.65625 -4.046875 L 0.625 -4.03125 C 0.59375 -4.03125 0.5625 -4.050781 0.53125 -4.09375 C 0.507812 -4.144531 0.507812 -4.175781 0.53125 -4.1875 C 0.875 -4.488281 1.175781 -4.726562 1.4375 -4.90625 L 1.640625 -6.09375 C 1.640625 -6.113281 1.710938 -6.1875 1.859375 -6.3125 C 2.003906 -6.445312 2.132812 -6.585938 2.25 -6.734375 C 2.375 -6.878906 2.457031 -7.050781 2.5 -7.25 C 2.5 -7.28125 2.523438 -7.296875 2.578125 -7.296875 C 2.597656 -7.296875 2.617188 -7.285156 2.640625 -7.265625 C 2.671875 -7.253906 2.679688 -7.238281 2.671875 -7.21875 L 2.359375 -5.546875 C 3.128906 -5.984375 3.84375 -6.203125 4.5 -6.203125 Z M 5.09375 -3.46875 C 5.125 -3.6875 5.140625 -3.90625 5.140625 -4.125 C 5.140625 -5.132812 4.703125 -5.640625 3.828125 -5.640625 C 3.359375 -5.640625 2.847656 -5.484375 2.296875 -5.171875 L 1.5 -0.6875 C 1.875 -0.507812 2.285156 -0.421875 2.734375 -0.421875 C 3.390625 -0.421875 3.914062 -0.695312 4.3125 -1.25 C 4.71875 -1.8125 4.976562 -2.550781 5.09375 -3.46875 Z M 5.09375 -3.46875 "/></g></g></g><g fill="#4c483d" fill-opacity="1"><g transform="translate(59.916716, 13.908494)"><g><path d="M 2.4375 0.21875 C 1.8125 0.21875 1.320312 0 0.96875 -0.4375 C 0.613281 -0.882812 0.4375 -1.460938 0.4375 -2.171875 C 0.4375 -2.503906 0.460938 -2.796875 0.515625 -3.046875 C 0.628906 -3.660156 0.847656 -4.210938 1.171875 -4.703125 C 1.503906 -5.191406 1.898438 -5.578125 2.359375 -5.859375 C 2.828125 -6.148438 3.316406 -6.296875 3.828125 -6.296875 C 4.484375 -6.296875 4.988281 -6.078125 5.34375 -5.640625 C 5.707031 -5.203125 5.890625 -4.632812 5.890625 -3.9375 C 5.890625 -3.644531 5.859375 -3.347656 5.796875 -3.046875 C 5.671875 -2.398438 5.429688 -1.828125 5.078125 -1.328125 C 4.734375 -0.828125 4.328125 -0.441406 3.859375 -0.171875 C 3.390625 0.0859375 2.914062 0.21875 2.4375 0.21875 Z M 2.984375 -0.171875 C 3.421875 -0.171875 3.816406 -0.363281 4.171875 -0.75 C 4.535156 -1.144531 4.78125 -1.675781 4.90625 -2.34375 C 4.957031 -2.6875 4.984375 -2.992188 4.984375 -3.265625 C 4.984375 -3.992188 4.84375 -4.617188 4.5625 -5.140625 C 4.289062 -5.660156 3.894531 -5.921875 3.375 -5.921875 C 2.925781 -5.921875 2.519531 -5.722656 2.15625 -5.328125 C 1.800781 -4.929688 1.554688 -4.394531 1.421875 -3.71875 C 1.359375 -3.40625 1.328125 -3.085938 1.328125 -2.765625 C 1.328125 -2.054688 1.472656 -1.445312 1.765625 -0.9375 C 2.054688 -0.425781 2.460938 -0.171875 2.984375 -0.171875 Z M 2.984375 -0.171875 "/></g></g></g><g fill="#4c483d" fill-opacity="1"><g transform="translate(66.516325, 13.908494)"><g><path d="M 1.59375 0.171875 C 1.1875 0.171875 0.835938 0.078125 0.546875 -0.109375 C 0.253906 -0.296875 0.128906 -0.53125 0.171875 -0.8125 C 0.179688 -0.945312 0.234375 -1.050781 0.328125 -1.125 C 0.421875 -1.207031 0.523438 -1.25 0.640625 -1.25 C 0.734375 -1.25 0.8125 -1.21875 0.875 -1.15625 C 0.9375 -1.09375 1.007812 -0.988281 1.09375 -0.84375 C 1.21875 -0.625 1.34375 -0.457031 1.46875 -0.34375 C 1.601562 -0.226562 1.800781 -0.171875 2.0625 -0.171875 C 2.644531 -0.171875 2.984375 -0.492188 3.078125 -1.140625 C 3.085938 -1.191406 3.09375 -1.257812 3.09375 -1.34375 C 3.09375 -1.644531 3.007812 -1.90625 2.84375 -2.125 C 2.675781 -2.351562 2.410156 -2.613281 2.046875 -2.90625 C 1.703125 -3.1875 1.441406 -3.4375 1.265625 -3.65625 C 1.097656 -3.875 1.015625 -4.132812 1.015625 -4.4375 C 1.015625 -4.488281 1.023438 -4.578125 1.046875 -4.703125 C 1.140625 -5.171875 1.390625 -5.546875 1.796875 -5.828125 C 2.203125 -6.109375 2.648438 -6.25 3.140625 -6.25 C 3.492188 -6.25 3.796875 -6.179688 4.046875 -6.046875 C 4.296875 -5.910156 4.421875 -5.734375 4.421875 -5.515625 C 4.421875 -5.359375 4.367188 -5.238281 4.265625 -5.15625 C 4.171875 -5.070312 4.054688 -5.03125 3.921875 -5.03125 C 3.804688 -5.03125 3.707031 -5.0625 3.625 -5.125 C 3.550781 -5.1875 3.46875 -5.28125 3.375 -5.40625 C 3.257812 -5.582031 3.144531 -5.707031 3.03125 -5.78125 C 2.925781 -5.863281 2.773438 -5.90625 2.578125 -5.90625 C 2.316406 -5.90625 2.109375 -5.832031 1.953125 -5.6875 C 1.804688 -5.539062 1.734375 -5.332031 1.734375 -5.0625 C 1.734375 -4.78125 1.816406 -4.523438 1.984375 -4.296875 C 2.160156 -4.078125 2.421875 -3.820312 2.765625 -3.53125 C 3.128906 -3.207031 3.394531 -2.929688 3.5625 -2.703125 C 3.738281 -2.472656 3.828125 -2.203125 3.828125 -1.890625 C 3.828125 -1.554688 3.726562 -1.226562 3.53125 -0.90625 C 3.332031 -0.582031 3.054688 -0.320312 2.703125 -0.125 C 2.359375 0.0703125 1.988281 0.171875 1.59375 0.171875 Z M 1.59375 0.171875 "/></g></g></g><g fill="#4c483d" fill-opacity="1"><g transform="translate(71.600231, 13.908494)"><g><path d="M 5.1875 -5.59375 C 5.1875 -5.257812 5.015625 -4.941406 4.671875 -4.640625 C 4.335938 -4.347656 3.882812 -4.085938 3.3125 -3.859375 C 2.738281 -3.640625 2.117188 -3.476562 1.453125 -3.375 C 1.398438 -3.039062 1.375 -2.753906 1.375 -2.515625 C 1.375 -1.859375 1.519531 -1.332031 1.8125 -0.9375 C 2.101562 -0.539062 2.519531 -0.34375 3.0625 -0.34375 C 3.644531 -0.34375 4.171875 -0.519531 4.640625 -0.875 L 4.671875 -0.875 C 4.703125 -0.875 4.726562 -0.851562 4.75 -0.8125 C 4.78125 -0.78125 4.78125 -0.75 4.75 -0.71875 C 4.007812 -0.113281 3.242188 0.1875 2.453125 0.1875 C 1.785156 0.1875 1.28125 -0.0234375 0.9375 -0.453125 C 0.59375 -0.878906 0.421875 -1.425781 0.421875 -2.09375 C 0.421875 -2.332031 0.445312 -2.609375 0.5 -2.921875 C 0.59375 -3.453125 0.8125 -3.976562 1.15625 -4.5 C 1.507812 -5.019531 1.945312 -5.445312 2.46875 -5.78125 C 2.988281 -6.125 3.535156 -6.296875 4.109375 -6.296875 C 4.453125 -6.296875 4.71875 -6.234375 4.90625 -6.109375 C 5.09375 -5.984375 5.1875 -5.8125 5.1875 -5.59375 Z M 3.40625 -5.875 C 2.925781 -5.875 2.519531 -5.660156 2.1875 -5.234375 C 1.851562 -4.804688 1.625 -4.257812 1.5 -3.59375 C 2.238281 -3.71875 2.835938 -3.90625 3.296875 -4.15625 C 3.753906 -4.414062 4.03125 -4.734375 4.125 -5.109375 C 4.144531 -5.210938 4.15625 -5.285156 4.15625 -5.328125 C 4.15625 -5.515625 4.078125 -5.648438 3.921875 -5.734375 C 3.773438 -5.828125 3.601562 -5.875 3.40625 -5.875 Z M 3.40625 -5.875 "/></g></g></g></g></g></g><g clip-path="url(#670d4c6cca)"><path stroke-linecap="butt" transform="matrix(1.480165, 0, 0, 1.480165, 28.464896, 6.09183)" fill="none" stroke-linejoin="miter" d="M 2.000376 151.013859 L 2.000376 42.247445 C 2.000376 20.021242 20.019909 1.999069 42.248752 1.999069 C 64.477594 1.999069 82.497128 20.021242 82.497128 42.247445 L 82.497128 151.013859 " stroke="#2b3a52" stroke-width="4" stroke-opacity="1" stroke-miterlimit="4"/></g><path stroke-linecap="butt" transform="matrix(0.00000000258337, -1.480165, 1.480165, 0.00000000258337, 89.516489, 229.61276)" fill="none" stroke-linejoin="miter" d="M -0.000352393 0.999622 L 131.863156 0.999622 " stroke="#d8dbdf" stroke-width="2" stroke-opacity="1" stroke-miterlimit="4"/><g clip-path="url(#8ec3b17159)"><g clip-path="url(#014509aaf2)"><g transform="matrix(1, 0, 0, 1, 86, 43)"><g clip-path="url(#9c89a2f54f)"><g clip-path="url(#37c7e98186)"><g clip-path="url(#39704823c2)"><path fill="#75bec7" d="M 0.0273438 0.5625 L 9.984375 0.5625 L 9.984375 10.039062 L 0.0273438 10.039062 Z M 0.0273438 0.5625 " fill-opacity="1" fill-rule="nonzero"/></g></g></g></g></g></g></g></g></svg>